<svg xmlns="http://www.w3.org/2000/svg" xmlns:xlink="http://www.w3.org/1999/xlink" width="500" zoomAndPan="magnify" viewBox="0 0 375 374.999991" height="500" preserveAspectRatio="xMidYMid meet" version="1.0"><defs><clipPath id="8bae47b1de"><path d="M 15.9375 0 L 359.4375 0 L 359.4375 375 L 15.9375 375 Z M 15.9375 0 " clip-rule="nonzero"/></clipPath><clipPath id="73144f6470"><path d="M 243.40625 83.710938 L 310.90625 83.710938 L 310.90625 173.710938 L 243.40625 173.710938 Z M 243.40625 83.710938 " clip-rule="nonzero"/></clipPath><clipPath id="6c0003af15"><path d="M 86 84 L 124 84 L 124 170.710938 L 86 170.710938 Z M 86 84 " clip-rule="nonzero"/></clipPath><clipPath id="cbd6316d49"><path d="M 127.214844 235.660156 L 247.777344 235.660156 L 247.777344 316.660156 L 127.214844 316.660156 Z M 127.214844 235.660156 " clip-rule="nonzero"/></clipPath></defs><g clip-path="url(#8bae47b1de)"><path fill="#000000" d="M 356.257812 73.976562 L 300.382812 41.773438 C 301.433594 38.625 302.136719 35.320312 302.136719 31.824219 C 302.136719 14.308594 287.867188 0.0546875 270.332031 0.0546875 C 252.796875 0.0546875 238.527344 14.308594 238.527344 31.824219 C 238.527344 49.34375 252.796875 63.597656 270.332031 63.597656 C 279.792969 63.597656 288.210938 59.367188 294.039062 52.792969 L 346.714844 83.148438 L 346.714844 171.121094 L 270.382812 215.113281 L 194.0625 171.128906 L 194.0625 79.496094 C 194.0625 77.222656 192.851562 75.125 190.878906 73.992188 L 108.1875 26.335938 C 106.210938 25.199219 103.800781 25.199219 101.824219 26.335938 L 19.128906 73.992188 C 17.160156 75.125 15.949219 77.222656 15.949219 79.496094 L 15.949219 174.808594 C 15.949219 177.078125 17.160156 179.175781 19.128906 180.3125 L 98.632812 226.128906 L 98.632812 320.9375 C 98.632812 323.207031 99.84375 325.304688 101.8125 326.441406 L 184.507812 374.097656 C 185.496094 374.664062 186.589844 374.949219 187.6875 374.949219 C 188.785156 374.949219 189.886719 374.664062 190.867188 374.097656 L 248.59375 340.808594 C 254.289062 346.167969 261.90625 349.515625 270.332031 349.515625 C 287.867188 349.515625 302.136719 335.261719 302.136719 317.746094 C 302.136719 300.226562 287.867188 285.972656 270.332031 285.972656 C 252.796875 285.972656 238.527344 300.226562 238.527344 317.746094 C 238.527344 322.246094 239.496094 326.515625 241.195312 330.398438 L 187.6875 361.257812 L 111.355469 317.265625 L 111.355469 226.140625 L 187.707031 182.140625 L 267.203125 227.953125 C 268.1875 228.519531 269.28125 228.800781 270.382812 228.800781 C 271.480469 228.800781 272.574219 228.519531 273.5625 227.953125 L 356.257812 180.296875 C 358.226562 179.160156 359.4375 177.0625 359.4375 174.792969 L 359.4375 79.480469 C 359.4375 77.207031 358.226562 75.109375 356.257812 73.976562 Z M 270.332031 50.886719 C 259.808594 50.886719 251.25 42.335938 251.25 31.824219 C 251.25 21.3125 259.808594 12.761719 270.332031 12.761719 C 280.855469 12.761719 289.414062 21.3125 289.414062 31.824219 C 289.414062 42.335938 280.855469 50.886719 270.332031 50.886719 Z M 270.332031 298.683594 C 280.855469 298.683594 289.414062 307.234375 289.414062 317.746094 C 289.414062 328.257812 280.855469 336.808594 270.332031 336.808594 C 259.808594 336.808594 251.25 328.257812 251.25 317.746094 C 251.25 307.234375 259.808594 298.683594 270.332031 298.683594 Z M 181.339844 171.136719 L 105.003906 215.128906 L 28.671875 171.136719 L 28.671875 83.164062 L 105.003906 39.171875 L 181.339844 83.164062 Z M 181.339844 171.136719 " fill-opacity="1" fill-rule="nonzero"/></g><g clip-path="url(#73144f6470)"><path fill="#000000" d="M 249.441406 173.648438 C 251.40625 173.648438 253.652344 172.808594 255.96875 171.191406 L 305.925781 137.023438 C 309.152344 134.847656 310.90625 131.832031 310.90625 128.675781 C 310.90625 125.515625 309.152344 122.5 305.925781 120.324219 L 256.039062 86.15625 C 253.722656 84.542969 251.40625 83.769531 249.441406 83.769531 C 245.722656 83.769531 243.40625 86.785156 243.40625 91.769531 L 243.40625 165.652344 C 243.40625 170.632812 245.722656 173.648438 249.441406 173.648438 Z M 249.441406 173.648438 " fill-opacity="1" fill-rule="nonzero"/></g><path fill="#000000" d="M 74.34375 158.457031 C 72.5 158.457031 71.273438 157.84375 70.046875 156.617188 L 45.496094 132.109375 C 43.042969 129.660156 43.042969 125.984375 45.496094 123.535156 L 70.046875 99.027344 C 72.5 96.574219 76.183594 96.574219 78.640625 99.027344 C 81.09375 101.476562 81.09375 105.152344 78.640625 107.605469 L 58.386719 127.820312 L 78.640625 148.039062 C 81.09375 150.492188 81.09375 154.167969 78.640625 156.617188 C 77.410156 157.84375 76.183594 158.457031 74.34375 158.457031 Z M 74.34375 158.457031 " fill-opacity="1" fill-rule="nonzero"/><path fill="#000000" d="M 135.714844 158.457031 C 133.875 158.457031 132.648438 157.84375 131.421875 156.617188 C 128.964844 154.167969 128.964844 150.492188 131.421875 148.039062 L 151.671875 127.820312 L 131.421875 107.605469 C 128.964844 105.152344 128.964844 101.476562 131.421875 99.027344 C 133.875 96.574219 137.558594 96.574219 140.011719 99.027344 L 164.5625 123.535156 C 167.015625 125.984375 167.015625 129.660156 164.5625 132.109375 L 140.011719 156.617188 C 138.785156 157.84375 137.558594 158.457031 135.714844 158.457031 Z M 135.714844 158.457031 " fill-opacity="1" fill-rule="nonzero"/><g clip-path="url(#6c0003af15)"><path fill="#000000" d="M 92.753906 170.710938 C 92.140625 170.710938 91.527344 170.710938 90.914062 170.097656 C 87.84375 168.871094 86.003906 165.808594 87.230469 162.132812 L 111.78125 88.609375 C 113.007812 85.546875 116.078125 83.710938 119.757812 84.933594 C 122.828125 86.160156 124.667969 89.222656 123.441406 92.898438 L 98.890625 166.421875 C 97.664062 168.871094 95.210938 170.710938 92.753906 170.710938 Z M 92.753906 170.710938 " fill-opacity="1" fill-rule="nonzero"/></g><g clip-path="url(#cbd6316d49)"><path fill="#000000" d="M 216.613281 305.679688 L 216.613281 283.226562 C 217.308594 281.761719 218.335938 279.5625 219.6875 276.628906 C 221.039062 273.699219 222.609375 270.457031 224.386719 266.910156 C 226.167969 263.359375 228.0625 259.753906 230.070312 256.085938 C 232.085938 252.425781 234.132812 249.085938 236.222656 246.074219 C 238.308594 243.066406 240.355469 240.582031 242.367188 238.609375 C 244.378906 236.644531 246.234375 235.660156 247.9375 235.660156 L 233.515625 235.660156 L 209.457031 283.527344 L 209.457031 308.664062 L 206.308594 308.664062 L 206.308594 282.785156 L 229.992188 235.660156 L 216.03125 235.660156 C 217.117188 235.660156 217.847656 236.085938 218.234375 236.933594 C 218.621094 237.785156 218.816406 238.628906 218.816406 239.480469 C 218.816406 240.480469 218.429688 242.082031 217.65625 244.28125 C 216.882812 246.480469 215.894531 248.949219 214.699219 251.6875 C 213.5 254.429688 212.148438 257.339844 210.636719 260.425781 C 209.128906 263.511719 207.660156 266.480469 206.226562 269.335938 C 204.796875 272.195312 203.484375 274.757812 202.28125 277.03125 C 201.082031 279.308594 200.175781 281.066406 199.554688 282.296875 L 199.554688 304.75 C 199.554688 305.90625 199.5 307.203125 199.382812 308.628906 C 199.265625 310.058594 198.976562 311.371094 198.511719 312.566406 C 198.046875 313.761719 197.351562 314.746094 196.425781 315.519531 C 195.496094 316.289062 194.222656 316.675781 192.59375 316.675781 L 223.457031 316.675781 C 221.910156 316.675781 220.671875 316.328125 219.742188 315.632812 C 218.816406 314.941406 218.117188 314.054688 217.65625 312.972656 C 217.191406 311.894531 216.902344 310.699219 216.785156 309.382812 C 216.667969 308.070312 216.613281 306.835938 216.613281 305.679688 Z M 195.992188 253.601562 C 195.21875 251.75 194.3125 249.820312 193.269531 247.8125 C 192.226562 245.808594 191.027344 243.957031 189.671875 242.257812 C 188.316406 240.5625 186.773438 239.117188 185.027344 237.917969 C 183.289062 236.722656 181.300781 235.96875 179.054688 235.660156 L 196.226562 235.660156 Z M 152.253906 312.566406 C 152.714844 311.371094 152.988281 310.078125 153.0625 308.6875 C 153.140625 307.300781 153.179688 305.988281 153.179688 304.75 L 153.179688 235.660156 L 160.132812 235.660156 L 160.132812 308.664062 L 163.285156 308.664062 L 163.285156 235.660156 L 170.238281 235.660156 L 170.238281 303.363281 C 170.238281 304.675781 170.257812 306.105469 170.296875 307.644531 C 170.335938 309.191406 170.546875 310.636719 170.933594 311.988281 C 171.320312 313.335938 171.976562 314.457031 172.90625 315.34375 C 173.832031 316.230469 175.222656 316.675781 177.082031 316.675781 L 146.339844 316.675781 C 147.960938 316.675781 149.238281 316.289062 150.167969 315.519531 C 151.09375 314.746094 151.789062 313.761719 152.253906 312.566406 Z M 127.359375 235.660156 L 145.640625 235.660156 C 143.246094 235.816406 141.101562 236.472656 139.203125 237.628906 C 137.308594 238.785156 135.648438 240.230469 134.214844 241.96875 C 132.785156 243.703125 131.507812 245.597656 130.382812 247.640625 C 129.261719 249.6875 128.277344 251.671875 127.425781 253.601562 C 127.734375 250.59375 127.246094 244.632812 127.359375 235.660156 Z M 127.359375 235.660156 " fill-opacity="1" fill-rule="nonzero"/></g></svg>